<?xml version="1.0"?><svg width="300" height="300" xmlns="http://www.w3.org/2000/svg">
 <g>
  <title>Layer 1</title>
  <g id="Layer_1">
   <g id="svg_1">
    <g id="surface0">
     <path id="svg_2" d="m158.585999,23.896999c7.244995,-0.694 14.906006,2.280001 19.453995,8.043001c3.169006,3.603998 4.606003,8.372999 5.108002,13.065001c-0.207001,7.204998 -3.881989,14.253998 -9.935989,18.25c-5.744003,3.651997 -13.184006,4.792995 -19.622009,2.375996c-9.705994,-3.032997 -16.345001,-13.780998 -14.500992,-23.807995c1.735992,-9.437 9.959,-16.962002 19.496994,-17.926003z" stroke-miterlimit="10" stroke-width="0.1" stroke="#000000" fill="none"/>
     <path id="svg_3" d="m158.585999,23.896999c7.244995,-0.694 14.906006,2.280001 19.453995,8.043001c3.169006,3.603998 4.606003,8.372999 5.108002,13.065001c-0.207001,7.204998 -3.881989,14.253998 -9.935989,18.25c-5.744003,3.651997 -13.184006,4.792995 -19.622009,2.375996c-9.705994,-3.032997 -16.345001,-13.780998 -14.500992,-23.807995c1.735992,-9.437 9.959,-16.962002 19.496994,-17.926003z"/>
     <path id="svg_4" d="m199.768005,64.5c3.046005,-5.958 9.068008,-11.771 16.309006,-10.490002c4.720001,0.122002 7.013992,4.804001 9.511993,8.085003c5.934006,-1.344002 12.378006,1.709999 15.344009,6.960999c4.763,7.491997 3.863998,18.139 -2.262009,24.609001c-2.291992,2.334999 -5.419998,3.562996 -8.527008,4.376999c-3.634995,10.200996 -8.002991,21.598 -18.23999,26.850998c-13.692993,7.086998 -30.580994,2.307999 -41.963013,-7.041c-2.097992,-2.198997 -5.292999,-1.162994 -7.962997,-1.538994c-5.753998,-0.854004 -11.175995,-3.232002 -16.166992,-6.151001c-7.312012,-4.445 -14.104004,-9.828003 -19.700005,-16.327003c-5.249001,-5.665001 -9.667,-12.892998 -9.607002,-20.843002c-0.083,-4.641998 3.272003,-9.069996 7.747002,-10.195995c5.377998,-0.745003 9.312996,3.701 12.978996,6.900997c6.382004,7.870003 10.546005,17.666 18.956009,23.792999c0.317993,-3.314995 0.964996,-6.601997 2.174988,-9.711998c3.748001,-1.781998 8.313004,-3.597 12.344009,-1.637001c6.063004,2.318001 8.373993,8.955002 11.270996,14.194c7.360001,-2.359001 14.384995,-6.024002 20.025009,-11.368996c-4.16301,-5.910004 -4.580002,-13.776001 -2.233002,-20.466003z" stroke-miterlimit="10" stroke-width="0.1" stroke="#000000" fill="none"/>
     <path id="svg_5" d="m199.768005,64.5c3.046005,-5.958 9.068008,-11.771 16.309006,-10.490002c4.720001,0.122002 7.013992,4.804001 9.511993,8.085003c5.934006,-1.344002 12.378006,1.709999 15.344009,6.960999c4.763,7.491997 3.863998,18.139 -2.262009,24.609001c-2.291992,2.334999 -5.419998,3.562996 -8.527008,4.376999c-3.634995,10.200996 -8.002991,21.598 -18.23999,26.850998c-13.692993,7.086998 -30.580994,2.307999 -41.963013,-7.041c-2.097992,-2.198997 -5.292999,-1.162994 -7.962997,-1.538994c-5.753998,-0.854004 -11.175995,-3.232002 -16.166992,-6.151001c-7.312012,-4.445 -14.104004,-9.828003 -19.700005,-16.327003c-5.249001,-5.665001 -9.667,-12.892998 -9.607002,-20.843002c-0.083,-4.641998 3.272003,-9.069996 7.747002,-10.195995c5.377998,-0.745003 9.312996,3.701 12.978996,6.900997c6.382004,7.870003 10.546005,17.666 18.956009,23.792999c0.317993,-3.314995 0.964996,-6.601997 2.174988,-9.711998c3.748001,-1.781998 8.313004,-3.597 12.344009,-1.637001c6.063004,2.318001 8.373993,8.955002 11.270996,14.194c7.360001,-2.359001 14.384995,-6.024002 20.025009,-11.368996c-4.16301,-5.910004 -4.580002,-13.776001 -2.233002,-20.466003z"/>
     <path id="svg_6" d="m209.662003,89.357002c1.964996,-0.146004 3.927002,-0.329002 5.886993,-0.573006c1.264999,2.011002 2.753998,3.872002 4,5.897003c-4.748001,7.458 -9.852997,16.421997 -19.228989,18.417c-3.965012,1.042999 -7.317001,-1.706001 -10.042007,-4.171997c7.934006,-4.804001 14.570007,-11.662003 19.384003,-19.569z" stroke-miterlimit="10" stroke-width="0.1" stroke="#FFFFFF" fill="none"/>
     <path id="svg_7" d="m209.662003,89.357002c1.964996,-0.146004 3.927002,-0.329002 5.886993,-0.573006c1.264999,2.011002 2.753998,3.872002 4,5.897003c-4.748001,7.458 -9.852997,16.421997 -19.228989,18.417c-3.965012,1.042999 -7.317001,-1.706001 -10.042007,-4.171997c7.934006,-4.804001 14.570007,-11.662003 19.384003,-19.569z" fill="#FFFFFF"/>
     <path id="svg_8" d="m101.596001,148.048996c0.220001,-5.571991 4.451996,-9.914001 9.420998,-11.871002c2.913002,0.825012 6.026001,1.438004 8.473,3.34201c4.672005,3.582993 7.369003,9.042999 9.355003,14.451996c3.000992,9.082001 5.729004,18.397995 6.121994,28.016998c1.309006,18.936996 -5.481995,37.884995 -17.269997,52.602005c-3.617996,4.695999 -8.055,8.655991 -12.229996,12.837997c-9.914001,8.749985 -19.745003,17.643997 -30.422005,25.468002c-5.503998,3.701996 -10.534996,8.059998 -16.004997,11.796997c0.148998,-0.40799 0.445999,-1.226013 0.593998,-1.634003c13.249004,-15.981995 26.938,-31.850998 37.550999,-49.794998c4.917999,-9.276993 9.874001,-18.891006 11.133003,-29.462997c1.374001,-11.671005 -0.496002,-23.431 -3.050003,-34.811005c-1.722,-6.863998 -3.792,-13.802994 -3.671997,-20.942001z" stroke-miterlimit="10" stroke-width="0.1" stroke="#000000" fill="none"/>
     <path id="svg_9" d="m101.596001,148.048996c0.220001,-5.571991 4.451996,-9.914001 9.420998,-11.871002c2.913002,0.825012 6.026001,1.438004 8.473,3.34201c4.672005,3.582993 7.369003,9.042999 9.355003,14.451996c3.000992,9.082001 5.729004,18.397995 6.121994,28.016998c1.309006,18.936996 -5.481995,37.884995 -17.269997,52.602005c-3.617996,4.695999 -8.055,8.655991 -12.229996,12.837997c-9.914001,8.749985 -19.745003,17.643997 -30.422005,25.468002c-5.503998,3.701996 -10.534996,8.059998 -16.004997,11.796997c0.148998,-0.40799 0.445999,-1.226013 0.593998,-1.634003c13.249004,-15.981995 26.938,-31.850998 37.550999,-49.794998c4.917999,-9.276993 9.874001,-18.891006 11.133003,-29.462997c1.374001,-11.671005 -0.496002,-23.431 -3.050003,-34.811005c-1.722,-6.863998 -3.792,-13.802994 -3.671997,-20.942001z"/>
     <path id="svg_10" d="m132.391998,145.632004c2.927002,-1.679001 6.093994,-3.356003 9.587997,-3.083008c7.304001,0.673004 13.684006,4.781006 19.417007,9.06601c6.780991,4.75499 13.218994,10.173996 18.182999,16.854996c9.664993,12.390991 14.779999,27.951996 15.791992,43.537994c0.201004,7.645004 0.034012,15.313004 -1.037994,22.895004c-1.307999,14.143005 -3.410004,28.214005 -6.244995,42.133011c-0.531006,2.55899 -0.777008,5.237 -2.113007,7.548981c-1.552994,-25.825989 -1.173996,-52.341995 -9.664001,-77.118988c-4.981995,-14.459 -16.310989,-25.556 -28.173996,-34.671997c-5.824005,-4.82901 -13.020004,-8.718002 -16.365005,-15.847c-1.830994,-3.626999 -0.513992,-7.706009 0.619003,-11.315002z" stroke-miterlimit="10" stroke-width="0.1" stroke="#000000" fill="none"/>
     <path id="svg_11" d="m132.391998,145.632004c2.927002,-1.679001 6.093994,-3.356003 9.587997,-3.083008c7.304001,0.673004 13.684006,4.781006 19.417007,9.06601c6.780991,4.75499 13.218994,10.173996 18.182999,16.854996c9.664993,12.390991 14.779999,27.951996 15.791992,43.537994c0.201004,7.645004 0.034012,15.313004 -1.037994,22.895004c-1.307999,14.143005 -3.410004,28.214005 -6.244995,42.133011c-0.531006,2.55899 -0.777008,5.237 -2.113007,7.548981c-1.552994,-25.825989 -1.173996,-52.341995 -9.664001,-77.118988c-4.981995,-14.459 -16.310989,-25.556 -28.173996,-34.671997c-5.824005,-4.82901 -13.020004,-8.718002 -16.365005,-15.847c-1.830994,-3.626999 -0.513992,-7.706009 0.619003,-11.315002z"/>
    </g>
   </g>
  </g>
 </g>
</svg>