<?xml version="1.0" encoding="UTF-8" standalone="no"?>
<!-- Generator: Adobe Illustrator 18.1.1, SVG Export Plug-In . SVG Version: 6.00 Build 0)  -->

<svg
   xmlns:dc="http://purl.org/dc/elements/1.1/"
   xmlns:cc="http://creativecommons.org/ns#"
   xmlns:rdf="http://www.w3.org/1999/02/22-rdf-syntax-ns#"
   xmlns:svg="http://www.w3.org/2000/svg"
   xmlns="http://www.w3.org/2000/svg"
   xmlns:sodipodi="http://sodipodi.sourceforge.net/DTD/sodipodi-0.dtd"
   xmlns:inkscape="http://www.inkscape.org/namespaces/inkscape"
   version="1.1"
   id="Layer_1"
   x="0px"
   y="0px"
   viewBox="0 0 763.1 319.7"
   enable-background="new 0 0 792 612"
   xml:space="preserve"
   inkscape:version="0.48.4 r9939"
   width="100%"
   height="100%"
   sodipodi:docname="Logo of Premier Boxing Champions.svg"><metadata
   id="metadata58"><rdf:RDF><cc:Work
       rdf:about=""><dc:format>image/svg+xml</dc:format><dc:type
         rdf:resource="http://purl.org/dc/dcmitype/StillImage" /></cc:Work></rdf:RDF></metadata><defs
   id="defs56" /><sodipodi:namedview
   pagecolor="#ffffff"
   bordercolor="#666666"
   borderopacity="1"
   objecttolerance="10"
   gridtolerance="10"
   guidetolerance="10"
   inkscape:pageopacity="0"
   inkscape:pageshadow="2"
   inkscape:window-width="640"
   inkscape:window-height="480"
   id="namedview54"
   showgrid="false"
   fit-margin-top="0"
   fit-margin-left="0"
   fit-margin-right="0"
   fit-margin-bottom="0"
   inkscape:zoom="0.42629187"
   inkscape:cx="381.3"
   inkscape:cy="159.4"
   inkscape:window-x="0"
   inkscape:window-y="0"
   inkscape:window-maximized="0"
   inkscape:current-layer="Layer_1" />
<g
   id="Layer_5"
   transform="translate(-14.7,-145.7)">
</g>
<g
   id="Layer_4"
   transform="translate(-14.7,-145.7)">
	<g
   id="Layer_7">
	</g>
	<g
   id="Layer_6">
	</g>
</g>
<g
   id="Layer_3"
   transform="translate(-14.7,-145.7)">
	<g
   id="g8">
		<path
   d="m 95.9,322.6 v -6.4 c 0,-3.7 -1.6,-7 -4.8,-9.6 3.2,-2.7 4.8,-5.9 4.8,-9.7 v -6.4 c 0,-3.8 -1.7,-7.2 -5,-10.1 -3.3,-2.9 -7.2,-4.6 -11.8,-5 -21,-1.6 -42.2,-3.5 -63.3,-5.5 l -1.1,-0.1 v 10 l 0.9,0.1 c 2.3,0.2 4.7,0.3 7,0.5 v 52.5 l -7.9,0.6 v 10 l 1.1,-0.1 c 21,-2 42.3,-3.8 63.3,-5.5 4.5,-0.4 8.5,-2 11.7,-4.9 3.4,-3.1 5.1,-6.6 5.1,-10.4 z M 84,300.5 c -1.4,1.1 -3,1.6 -4.9,1.6 0,0 0,0 0,0 -15.5,-0.1 -31,-0.3 -46.5,-0.4 V 281 c 15.4,1.1 31,2.1 46.4,3 1.9,0.1 3.5,0.8 5,2 1.4,1.2 2,2.5 2,4 v 6.6 c 0,1.5 -0.6,2.8 -2,3.9 z m -51.4,10.8 c 15.5,-0.2 31,-0.3 46.5,-0.4 l 0.1,-1 c 0,0 0,0 0,0 v 1 c 1.9,0 3.5,0.6 4.8,1.7 1.3,1.1 2,2.3 2,3.8 v 6.6 c 0,1.5 -0.7,2.8 -2,4 -1.4,1.2 -3,1.9 -5,2 -15.4,0.9 -31,2 -46.4,3 v -20.7 z"
   id="path10"
   inkscape:connector-curvature="0"
   style="fill:#231f20" />
		<path
   d="m 243.3,318 v -23 c 0,-2.9 -1.7,-5.4 -5.1,-7.5 -3.3,-2 -7.2,-3.2 -11.7,-3.4 -15.7,-0.7 -31.7,-1.4 -47.5,-2.3 -4.6,-0.3 -8.6,0.7 -11.8,2.7 -3.4,2.1 -5.1,4.9 -5.1,8.3 V 320 c 0,3.4 1.7,6.2 5,8.3 2.9,1.8 6.3,2.7 10.3,2.7 0.5,0 1,0 1.5,0 15.8,-0.8 31.8,-1.6 47.5,-2.3 4.5,-0.2 8.4,-1.3 11.6,-3.3 3.5,-2 5.3,-4.5 5.3,-7.4 z m -10,-23.2 v 23.3 c 0,0.9 -0.6,1.7 -1.9,2.5 -1.4,0.9 -3.1,1.3 -5.1,1.4 -15.8,0.5 -31.8,1.1 -47.6,1.8 -0.2,0 -0.4,0 -0.5,0 h 0 c -1.8,0 -3.3,-0.4 -4.5,-1.1 -1.2,-0.8 -1.8,-1.7 -1.8,-2.9 v -26.7 c 0,-1.1 0.6,-2 1.8,-2.8 1.3,-0.8 2.8,-1.2 4.5,-1.2 0.2,0 0.3,0 0.5,0 15.7,0.7 31.7,1.3 47.6,1.8 2,0.1 3.7,0.5 5.1,1.4 1.3,0.8 1.9,1.7 1.9,2.5 z"
   id="path12"
   inkscape:connector-curvature="0"
   style="fill:#231f20" />
		<path
   d="m 366,287.7 -1,0 v 6 l 1,0 c 1.2,0 2.5,0 3.7,0 -6.3,3.1 -12.9,6.4 -19.6,9.7 -7.1,-3.6 -13.6,-6.9 -19.6,-10.1 1.3,0 2.5,0 3.8,0 l 1,0 v -6 l -1,0 c -7.9,-0.1 -15.9,-0.3 -23.8,-0.4 l -1,0 v 5.2 l 0.1,1 4.6,0.1 c 8.5,4.5 17.6,9.3 27.8,14.4 -8.7,4.4 -16.5,8.5 -23.8,12.4 -2.6,0 -5.1,0.1 -7.7,0.1 l -1,0 v 6.1 l 1,0 c 7.8,-0.2 15.8,-0.3 23.8,-0.4 l 1,0 v -6 l -0.8,0 c 4.9,-2.6 10.1,-5.2 15.7,-8 4.7,2.3 9.6,4.8 15.6,7.8 l -0.7,0 v 6 l 1,0 c 7.8,-0.1 15.8,-0.1 23.8,-0.1 l 1,0 v -5.9 l -1,0 c -2.6,0 -5.1,0 -7.7,0 -7.7,-3.8 -15.7,-7.8 -23.8,-11.8 8.5,-4.3 17.1,-8.5 25.5,-12.7 l 2.3,-1.1 4.7,0 v -5.9 l -1,0 c -8,-0.3 -16,-0.4 -23.9,-0.4 z"
   id="path14"
   inkscape:connector-curvature="0"
   style="fill:#231f20" />
		<path
   d="M 482.8,326.1 V 320 l -1,0 c -2.3,0 -4.6,-0.1 -6.9,-0.1 v -26.8 c 2.3,0 4.6,-0.1 6.9,-0.1 l 1,0 v -6.1 l -1,0 c -7.8,0.2 -15.8,0.3 -23.8,0.4 l -1,0 v 6 l 1,0 c 2.3,0 4.6,-0.1 6.9,-0.1 v 26.5 c -2.3,0 -4.6,-0.1 -6.9,-0.1 l -1,0 v 6 l 1,0 c 7.9,0.1 16,0.3 23.8,0.4 l 1,0.1 z"
   id="path16"
   inkscape:connector-curvature="0"
   style="fill:#231f20" />
		<path
   d="m 566.8,322.1 v -31.2 c 2.2,-0.1 4.3,-0.1 6.5,-0.2 10.8,12.8 21.4,26.1 31.3,39.5 l 0.3,0.4 0.5,0 c 7.9,0.4 15.9,0.8 23.8,1.3 l 1.1,0.1 v -7.4 l -7.9,-0.4 v -35.4 c 2.3,-0.1 4.6,-0.2 7,-0.3 l 1,0 V 281 l -1.1,0.1 c -7.9,0.5 -15.9,0.9 -23.8,1.3 l -0.9,0 v 7.1 l 1,0 c 2.3,-0.1 4.6,-0.2 6.9,-0.3 v 34.6 l -2.4,-0.1 c -10,-13.5 -20.6,-26.9 -31.5,-39.6 l -0.3,-0.4 -0.5,0 c -9.2,0.4 -18.5,0.8 -27.7,1.2 l -1,0 v 6.6 l 1,0 c 2.3,-0.1 4.6,-0.1 6.9,-0.2 v 30.5 c -2.3,-0.1 -4.6,-0.1 -6.9,-0.2 l -1,0 v 6.6 l 1,0 c 7.9,0.3 15.9,0.6 23.8,1 l 1,0 v -6.8 l -1,0 c -2.4,-0.2 -4.8,-0.2 -7.1,-0.3 z"
   id="path18"
   inkscape:connector-curvature="0"
   style="fill:#231f20" />
		<path
   d="m 768.9,287.8 c 3.3,0 3.3,0 4.4,0 0.6,0 1.5,0 3.5,-0.1 l 1,0 v -1 c 0,-9.8 -6.7,-15 -19.3,-15 -2.3,0 -4.3,0.2 -5.5,0.3 l -0.4,0 c -13.1,1.2 -26.4,2.3 -39.6,3.3 -4.6,0.4 -8.5,2 -11.8,4.9 -3.3,2.9 -5,6.3 -5,10.2 v 32.2 c 0,3.8 1.7,7.2 4.9,10.1 3.3,2.9 7.3,4.6 11.8,4.9 15.7,1.2 31.7,2.6 47.5,4 0.6,0.1 1.2,0.1 1.8,0.1 3.9,0 7.3,-1.3 10.1,-3.8 3.3,-3 5,-6.9 5,-11.6 v -24.8 l -1,0 c -13.2,0.1 -26.4,0.3 -39.5,0.4 l -1,0 v 9.1 l 1,0 c 10.2,0.1 20.4,0.2 30.6,0.3 v 14.5 c 0,1.9 -0.7,3.4 -2,4.6 -1.4,1.2 -3,1.7 -4.8,1.6 -15.7,-1.1 -31.7,-2.2 -47.5,-3.1 -1.9,-0.1 -3.6,-0.8 -5,-2 -1.3,-1.2 -2,-2.5 -2,-4.1 V 290 c 0,-1.5 0.6,-2.8 2,-4 1.4,-1.3 3.1,-1.9 5,-2.1 13.1,-0.8 26.4,-1.7 39.5,-2.6 1.8,-0.1 3.1,-0.1 4.3,-0.1 4,0 6.1,0.3 8.2,1.4 l 0.3,0.2 c 1.5,1 2.4,1.6 2.4,3.8 v 1 h 1.1 z"
   id="path20"
   inkscape:connector-curvature="0"
   style="fill:#231f20" />
		<path
   d="m 234.2,190.1 c -0.3,0.9 -1,1.6 -2.2,2.3 -1.8,1 -2.5,1.8 -2.5,2.6 0,0.7 0.3,1.9 2.3,2.4 1.1,0.2 3.6,0.4 7.8,0.4 0,0 0,0 0,0 l 1.3,0 c 5.8,0 8,-0.6 8,-2.4 0,-0.7 -0.5,-1.2 -2,-2.3 -1.1,-0.8 -1.6,-1.4 -1.8,-1.7 -0.5,-0.8 -1,-2.8 -1,-7.4 0,-3.8 0.1,-6.4 0.4,-7.6 0.1,-0.3 0.3,-1.2 2.5,-1.2 1.7,0 3.1,0.7 4.3,2.1 1.3,1.6 3,4.6 5,9 2.1,4.6 3.9,7.5 5.3,8.9 1.5,1.5 3.6,2.3 6.3,2.3 1.9,0 7,0 7,-3 0,-0.8 -0.4,-1.3 -4.4,-3.3 -0.9,-0.4 -1.9,-1.3 -2.9,-2.5 -1.1,-1.3 -2.7,-4.1 -5,-8.3 -2.7,-4.9 -3.2,-6.2 -3.3,-6.6 0,-0.3 0.3,-1 2,-2.3 1.7,-1.3 3.2,-2.9 4.4,-4.8 1.3,-2 1.9,-4.2 1.9,-6.7 0,-2.4 -0.5,-4.6 -1.4,-6.4 -2.6,-5.2 -8.1,-7.8 -16.5,-7.8 l -7.5,0 c -11.4,0 -12.3,1 -12.3,2.3 0,0.9 0.8,1.4 1.4,1.8 l 1.4,0.8 c 0.7,0.5 1.2,1.5 1.5,3 0.3,1.1 0.6,4.7 0.6,15.8 l -0.2,11.5 c 0.2,6.6 -0.1,8.6 -0.4,9.1 z m 9.3,-23.1 0,-5 c 0,-7.8 0.4,-9.4 0.6,-9.8 0.1,-0.1 0.6,-0.9 3.9,-0.9 h 1.1 c 3.1,0 5.4,0.7 7,2.2 1.6,1.4 2.3,3.3 2.3,5.6 v 1.5 c 0,2.7 -0.9,4.8 -2.8,6.4 -1.9,1.6 -4.6,2.5 -7.8,2.5 l -2,0 -0.9,0 -0.6,-0.1 -0.1,0 c -0.6,-0.1 -0.7,-1.7 -0.7,-2.4 z"
   id="path22"
   inkscape:connector-curvature="0"
   style="fill:#231f20" />
		<path
   d="m 322.7,198 4.8,0 c 7.8,0 9.8,-0.4 10.6,-0.8 1.3,-0.6 2.3,-1.8 3.2,-3.8 0.8,-1.8 1.2,-4 1.2,-6.3 0,-1.5 -1,-2 -1.8,-2 -0.5,0 -0.6,0 -4.4,3.8 -2.2,2.1 -5.8,3.2 -10.9,3.2 -3.3,0 -4.7,-0.3 -5.3,-0.6 -0.8,-0.3 -1.4,-1 -1.8,-1.9 -0.9,-2 -1.4,-5.7 -1.4,-10.8 0,-1.5 0.3,-2.6 0.9,-3.2 0.4,-0.4 1.4,-1 3.9,-1 2.1,0 3.6,0.3 4.6,0.8 0.1,0.1 0.6,0.6 2.2,2.4 0.8,0.9 1.6,1.3 2.5,1.3 2.2,0 2.5,-3.5 2.5,-7.4 0,-6 -0.8,-7.5 -1.5,-8.2 l -1.3,-0.7 h -0.3 c -0.8,0 -1.6,0.4 -2.4,1.2 l -0.7,0.9 -0.8,0.7 c -1,0.8 -2.4,1.2 -4.3,1.2 -1.9,0 -3.3,-0.2 -4.1,-0.7 -0.4,-0.2 -1,-0.7 -1,-2.1 0,-4.5 0.5,-7.9 1.4,-10 0.6,-1.4 2.1,-2.1 4.5,-2.1 4.2,0 7.2,0.3 8.9,1 1.7,0.7 3,1.5 3.8,2.6 1.5,1.8 2,2.2 2.6,2.2 0.8,0 1.8,-0.5 1.8,-3 0,-4 -1,-6.5 -3,-7.7 -0.8,-0.5 -2.7,-1.1 -9.1,-1.1 l -3.1,0 -3.1,0.1 c -6.7,0 -11.2,0.1 -13.8,0.4 -1.3,0.1 -4.8,0.4 -4.8,2.6 0,0.6 0.4,1.2 1.2,1.9 l 0.9,0.6 0.8,0.7 c 0.7,0.7 1.2,1.6 1.4,2.8 0.2,1.3 0.3,7.1 0.3,17.3 0,12.6 -0.3,16.3 -0.5,17.1 -0.3,1.1 -0.8,1.9 -1.5,2.5 l -1.8,1.1 -0.9,1.1 v 0.4 c 0,1.5 1.3,2.5 4,2.9 2.1,0.3 5,0.5 8.7,0.5 3.5,0 5.9,0 6.9,0.1 z"
   id="path24"
   inkscape:connector-curvature="0"
   style="fill:#231f20" />
		<path
   d="m 399.4,195.2 c 1.5,0 2.9,-1.4 4.4,-4.5 0.4,-0.8 2.7,-6.6 6.9,-17.1 3.3,-8.3 5,-12.2 5.8,-14 0.1,1 0.2,2.7 0.2,5.5 l -0.1,8.9 c 0,8.2 -0.1,13.2 -0.4,14.8 -0.2,1.5 -0.7,2.7 -1.3,3.5 -0.9,1.2 -1.3,2.1 -1.3,2.9 0,2.3 3.4,2.6 6.6,2.6 h 2.1 c 4,0 8,-0.3 8,-2.8 v -0.4 l -1.3,-1.2 -1.4,-0.9 -1,-1 c -0.5,-0.7 -0.8,-2 -1.1,-3.6 -0.3,-1.8 -0.4,-6.9 -0.4,-15.2 l -0.1,-9.2 c 0,-4 0.2,-6.8 0.5,-8.2 0.3,-1.3 0.7,-2.2 1.3,-2.9 l 1.2,-0.9 1.3,-1.5 v -0.4 c 0,-1.3 -0.6,-2.2 -1.8,-2.6 -1.3,-0.4 -3.1,-0.7 -5.4,-0.7 -2.4,0 -3.9,0.2 -4.7,0.6 -0.9,0.4 -1.9,1.5 -3.1,3.4 -1.1,1.8 -3.7,7.5 -7.8,17.4 -3.4,8.3 -5.1,11.8 -5.8,13.3 l -3.3,-8.2 c -0.3,-0.8 -0.9,-2.2 -1.6,-4.2 l -0.8,-2.1 c -3.5,-8.8 -5.7,-13.8 -6.7,-15.4 -1,-1.7 -2.1,-2.8 -3.3,-3.5 -1.2,-0.7 -3.4,-1 -7,-1 -1.8,0 -6,0 -6,2.5 0,0.6 0.3,1 2.1,2.4 1,0.8 1.6,1.6 1.9,2.7 0.2,0.8 0.5,2.8 0.5,8 l -0.1,9 c 0,1.5 0,3 0,4.5 l 0,2.3 c 0,7.2 -0.3,9.9 -0.5,10.9 -0.3,1.3 -1.2,2.5 -2.7,3.7 -1.3,1 -1.9,1.9 -1.9,2.8 0,1.7 2.3,2.3 9.2,2.3 2.6,0 5.3,-0.2 5.3,-2 0,-0.9 -0.4,-1.8 -1.2,-2.9 -0.6,-0.8 -1.1,-1.6 -1.4,-2.5 -0.3,-0.9 -0.5,-2.6 -0.5,-5 0,-2.5 0,-4.5 0,-6 l 0,-6.7 c 0,-6.9 0.1,-10.6 0.3,-12.5 0.8,1.6 2.1,4.7 4.4,10.4 3.3,8.4 5.6,14.3 7,17.7 l 1.7,4.1 c 0.8,1.2 1.8,2.9 3.3,2.9 z"
   id="path26"
   inkscape:connector-curvature="0"
   style="fill:#231f20" />
		<path
   d="m 463.1,193 c -1.4,0.6 -2.9,1.6 -2.9,2.9 0,1 0.6,2.2 3.5,2.2 h 14.1 c 2.9,0 3.2,-1.6 3.2,-2.2 0,-0.8 -0.5,-1.4 -3.8,-3.2 -0.8,-0.4 -1.3,-1.3 -1.6,-2.5 -0.2,-1 -0.5,-5 -0.5,-18 0,-13 0.3,-17.1 0.6,-18.2 0.3,-1.4 1.1,-2.4 2.4,-3 1.4,-0.6 2.9,-1.6 2.9,-2.9 0,-1 -0.6,-2.2 -3.5,-2.2 h -14.1 c -2.9,0 -3.3,1.4 -3.3,2.2 0,0.7 0.3,1.2 3.8,3.2 0.8,0.5 1.3,1.3 1.6,2.5 0.2,1 0.5,4.9 0.5,18.2 0,13.3 -0.3,17.3 -0.5,18.3 -0.4,1.2 -1.1,2.1 -2.4,2.7 z"
   id="path28"
   inkscape:connector-curvature="0"
   style="fill:#231f20" />
		<path
   d="m 530.7,198 4.9,0 c 7.8,0 9.8,-0.4 10.6,-0.8 1.3,-0.6 2.3,-1.8 3.2,-3.8 0.8,-1.8 1.2,-4 1.2,-6.3 0,-1.5 -1,-2 -1.8,-2 -0.5,0 -0.6,0 -4.4,3.8 -2.2,2.1 -5.8,3.2 -10.9,3.2 -3.3,0 -4.7,-0.3 -5.3,-0.6 -0.8,-0.3 -1.4,-1 -1.8,-1.9 -0.9,-2 -1.4,-5.7 -1.4,-10.8 0,-1.5 0.3,-2.6 0.9,-3.2 0.4,-0.4 1.4,-1 3.9,-1 2.1,0 3.6,0.3 4.6,0.8 0.1,0.1 0.6,0.6 2.2,2.4 0.8,0.9 1.6,1.3 2.5,1.3 2.2,0 2.5,-3.5 2.5,-7.4 0,-6 -0.8,-7.5 -1.5,-8.2 l -1.3,-0.7 h -0.3 c -0.8,0 -1.6,0.4 -2.4,1.2 l -0.7,0.9 -0.8,0.7 c -1,0.8 -2.4,1.2 -4.3,1.2 -1.9,0 -3.3,-0.2 -4.1,-0.7 -0.4,-0.2 -1,-0.7 -1,-2.1 0,-4.5 0.5,-7.9 1.4,-10 0.6,-1.4 2.1,-2.1 4.5,-2.1 4.2,0 7.2,0.3 8.9,1 1.7,0.7 3,1.5 3.8,2.6 1.5,1.8 2,2.2 2.6,2.2 0.8,0 1.8,-0.5 1.8,-3 0,-4 -1,-6.5 -3,-7.7 -0.8,-0.5 -2.7,-1.1 -9.1,-1.1 l -3.1,0 -3.1,0.1 c -6.7,0 -11.2,0.1 -13.8,0.4 -1.3,0.1 -4.8,0.4 -4.8,2.6 0,0.6 0.4,1.2 1.2,1.9 l 0.9,0.6 0.8,0.7 c 0.7,0.7 1.2,1.6 1.4,2.8 0.2,1.3 0.3,7.1 0.3,17.3 0,12.6 -0.3,16.3 -0.5,17.1 -0.3,1.1 -0.8,1.9 -1.5,2.5 l -1.9,1.1 -0.9,1.1 v 0.4 c 0,1.5 1.3,2.5 4,2.9 2.1,0.3 5,0.5 8.7,0.5 3.5,0 5.9,0 6.9,0.1 z"
   id="path30"
   inkscape:connector-curvature="0"
   style="fill:#231f20" />
		<path
   d="m 585,190.1 c -0.3,0.9 -1,1.6 -2.2,2.3 -1.8,1 -2.5,1.8 -2.5,2.6 0,0.7 0.3,1.9 2.3,2.4 1.1,0.2 3.6,0.4 7.8,0.4 0,0 0,0 0,0 l 1.3,0 c 5.8,0 8,-0.6 8,-2.4 0,-0.7 -0.5,-1.2 -2,-2.3 -1.1,-0.8 -1.6,-1.4 -1.8,-1.7 -0.5,-0.8 -1,-2.8 -1,-7.4 0,-3.8 0.1,-6.4 0.4,-7.6 0.1,-0.3 0.3,-1.2 2.5,-1.2 1.7,0 3.1,0.7 4.3,2.1 1.3,1.6 3,4.6 5,9 2.1,4.6 3.9,7.5 5.3,8.9 1.5,1.5 3.6,2.3 6.3,2.3 1.9,0 7,0 7,-3 0,-0.8 -0.4,-1.3 -4.4,-3.3 -0.9,-0.4 -1.9,-1.3 -2.9,-2.5 -1.1,-1.3 -2.7,-4.1 -5,-8.3 -2.7,-4.9 -3.2,-6.2 -3.3,-6.6 0,-0.3 0.3,-1 2,-2.3 1.7,-1.3 3.2,-2.9 4.4,-4.8 1.3,-2 1.9,-4.2 1.9,-6.7 0,-2.4 -0.5,-4.6 -1.4,-6.4 -2.6,-5.2 -8.1,-7.8 -16.5,-7.8 l -7.5,0 c -11.4,0 -12.3,1 -12.3,2.3 0,0.9 0.8,1.4 1.4,1.8 l 1.4,0.8 c 0.7,0.5 1.2,1.5 1.5,3 0.3,1.1 0.6,4.7 0.6,15.8 l -0.2,11.5 c 0.2,6.6 -0.2,8.6 -0.4,9.1 z m 9.3,-23.1 0,-5 c 0,-7.8 0.4,-9.4 0.6,-9.8 0.1,-0.1 0.6,-0.9 3.9,-0.9 h 1.1 c 3.1,0 5.4,0.7 7,2.2 1.6,1.4 2.3,3.3 2.3,5.6 v 1.5 c 0,2.7 -0.9,4.8 -2.8,6.4 -1.9,1.6 -4.6,2.5 -7.8,2.5 l -2,0 -0.9,0 -0.6,-0.1 -0.1,0 c -0.6,-0.1 -0.7,-1.7 -0.7,-2.4 z"
   id="path32"
   inkscape:connector-curvature="0"
   style="fill:#231f20" />
		<path
   d="m 166.9,197.8 h 5.6 c 6.3,0 8.7,-0.7 8.7,-2.5 0,-0.9 -0.8,-1.6 -2.6,-2.5 -1.2,-0.6 -2.1,-1.2 -2.5,-1.9 -0.4,-0.6 -0.6,-1.7 -0.6,-3.1 0,-8.8 1,-10.3 1.3,-10.6 0.1,-0.1 0.8,-0.3 4.4,-0.6 2.9,-0.2 5.2,-0.5 6.7,-0.9 4.7,-1.2 8.2,-3.7 10.5,-7.7 1.2,-2.1 1.8,-4.5 1.8,-7.1 0,-5.1 -1.9,-9.1 -5.7,-11.9 -2.9,-2.2 -7.4,-3.3 -13.5,-3.3 l -5.6,0.1 c -12.7,0 -13.6,1 -13.6,2.3 0,0.5 0,0.5 3.1,3 0.6,0.5 1.1,1.3 1.3,2.4 0.2,0.8 0.4,3.4 0.4,10.9 l -0.2,12.1 c 0,9 -0.3,12 -0.6,12.9 -0.4,1.2 -1,2.1 -1.9,2.7 -2.9,1.8 -3.2,2.3 -3.2,3 0,2.7 4.5,2.7 6.2,2.7 z m 8.7,-38.4 0,-1.1 0,-2.1 0,-1 c 0,-0.1 0,-0.3 0.1,-0.8 l 0,-0.2 c 0,-1.7 0.4,-2.1 0.6,-2.2 0.2,-0.2 1,-0.5 3.5,-0.5 l 2.5,0.1 c 2.4,0 4.3,0.8 5.8,2.4 1.5,1.6 2.3,4.1 2.3,7.4 0,3.3 -0.9,5.7 -2.8,7.4 -1.9,1.7 -4.6,2.6 -7.9,2.6 h -1.1 c -2.3,0 -2.9,-0.3 -2.9,-0.3 0,0 0,0 0,0 0,-0.1 -0.3,-0.6 -0.3,-3.1 l 0.1,-6 0,-0.3 0.1,-2.3 z"
   id="path34"
   inkscape:connector-curvature="0"
   style="fill:#231f20" />
		<path
   d="m 123.1,451.3 c -0.7,0 -1.8,0.3 -4.8,2.7 -2,1.6 -3.4,2.7 -4.4,3.1 -2.1,1.1 -4.3,1.6 -6.4,1.6 -5.1,0 -9,-1.6 -11.8,-4.8 -3.4,-4 -5.1,-9.2 -5.1,-15.5 0,-6.3 1.4,-11.4 4.2,-15.2 2.7,-3.8 6.5,-5.6 11.4,-5.6 2.6,0 5.3,0.8 7.8,2.4 1.6,1 3,2.4 4.2,4.2 1.6,2.4 2.6,3.3 3.6,3.3 2.2,0 2.2,-3.5 2.2,-5 0,-2.8 -0.4,-5 -1.1,-6.7 -0.6,-1.3 -2,-2.9 -5.2,-2.9 -2.1,0 -4.3,-0.2 -6.4,-0.6 -2.3,-0.4 -4.7,-0.7 -7.2,-0.7 -2.6,0 -5.2,0.6 -7.9,1.7 -6.2,2.6 -10.7,7.4 -13.4,14.2 -1.3,3.2 -1.9,6.6 -1.9,10.3 v 1.6 c 0,3.1 0.6,6.2 1.7,9.4 1.1,3.2 2.8,6.1 5.1,8.6 2.3,2.5 4.9,4.4 7.9,5.7 3,1.3 6,1.9 9,1.9 h 1.3 c 2.4,0 4.9,-0.4 7.6,-1.2 2.7,-0.8 4.6,-1.6 5.9,-2.3 1.3,-0.8 2.5,-2.1 3.7,-3.8 1.2,-1.9 1.8,-3.2 1.8,-4.3 -0.1,-1.9 -1.4,-2.1 -1.8,-2.1 z"
   id="path36"
   inkscape:connector-curvature="0"
   style="fill:#231f20" />
		<path
   d="m 197.7,412.6 c -9.9,0 -11.7,0.9 -11.7,2.6 0,0.5 0.3,0.9 1.7,2.1 1,0.9 1.4,1.3 1.5,1.5 0.4,0.7 0.8,2.7 0.8,8 0,5.7 -0.4,6.8 -0.5,7 -0.1,0.1 -1.1,1.2 -9.3,1.2 -7.6,0 -9.7,-0.4 -10.2,-0.6 -0.2,-0.1 -1.1,-0.7 -1.1,-4.3 0,-7.2 0.6,-10 1.1,-11.1 0.2,-0.5 0.7,-1 1.5,-1.6 1.5,-1.1 1.8,-1.3 1.8,-1.9 0,-2.5 -3.8,-2.5 -5.2,-2.5 -5.6,0 -9.1,0.1 -10.6,0.3 -2.8,0.3 -3.2,1.8 -3.2,2.7 0,0.7 0.5,1.3 2.4,2.4 l 1,0.6 c 0.5,0.4 0.8,1.2 1.1,2.2 0.2,0.6 0.5,3.8 0.5,17.9 0,14 -0.3,17.3 -0.6,18 -0.3,1 -1,1.8 -2.2,2.3 -1.7,0.8 -2.7,1.4 -2.7,2.4 0,2.7 4,2.7 5.3,2.7 h 1.7 c 9.7,0 11.6,-1 11.6,-2.7 0,-0.6 -0.4,-1.2 -1.5,-2.3 l -0.8,-0.8 c -0.4,-0.5 -0.8,-1.3 -1.1,-2.4 -0.2,-0.8 -0.5,-3.4 -0.5,-11.2 0,-3.7 0.8,-4.4 1,-4.6 0.4,-0.2 2.1,-0.7 9.5,-0.7 7.2,0 9,0.3 9.5,0.5 0.8,0.3 1.2,1.8 1.2,4.2 0,5.6 -0.2,9.4 -0.6,11.1 -0.4,1.7 -1,2.9 -1.9,3.6 -1.9,1.6 -1.9,1.6 -1.9,2.1 0,1.9 2.4,2.6 8.6,2.6 7.7,0 8.2,-0.1 8.5,-0.2 1.7,-0.5 2,-1.7 2,-2.4 0,-0.5 0,-0.5 -3.4,-3 -0.5,-0.4 -0.9,-1 -1.1,-1.8 -0.2,-0.7 -0.4,-3 -0.4,-10.2 l -0.1,-10.7 c 0,-10.7 0.4,-14 0.7,-15 0.4,-1.3 1.2,-2.2 2.2,-2.8 1.8,-1.1 2.4,-1.7 2.4,-2.4 v -0.9 c -0.2,-1.5 -1.8,-1.9 -7,-1.9 z"
   id="path38"
   inkscape:connector-curvature="0"
   style="fill:#231f20" />
		<path
   d="m 277.9,457.4 c -0.8,-0.6 -1.6,-1.8 -2.4,-3.4 -0.9,-1.7 -2.9,-7.3 -6.1,-16.6 -3.2,-9.4 -5.4,-15.5 -6.6,-18.3 -1.2,-3 -2.5,-4.9 -3.9,-6 -0.8,-0.6 -1.5,-0.9 -2.3,-0.9 -2.9,0 -5.2,3.1 -7.1,9.5 -0.6,1.9 -1.1,3.5 -1.5,4.7 -0.4,1.2 -1,2.8 -1.6,4.6 -0.6,1.8 -1.6,4.7 -3,8.4 -1.4,3.6 -2.4,6.5 -3.1,8.4 -1.6,4.5 -3.1,7.5 -4.5,9 -0.3,0.3 -0.8,0.8 -1.7,1.4 -1.2,0.9 -1.8,1.7 -1.8,2.5 0,1.9 2.5,2.4 3.3,2.6 1.7,0.3 4.9,0.5 9.4,0.5 2.3,0 2.5,-1.3 2.5,-1.8 0,-0.4 0,-0.4 -1.5,-2.3 -0.7,-0.9 -1.1,-1.8 -1.1,-2.6 0,-3.7 0.8,-6.6 2.4,-8.8 0.6,-0.8 2.2,-1.3 4.5,-1.3 l 4.3,-0.1 c 5.5,0 6.5,0.7 6.6,0.8 0.3,0.3 1.1,1.5 2.1,5.1 1.1,3.7 1.2,4.9 1.2,5.3 0,0.4 -0.3,0.9 -0.9,1.3 -1.3,0.9 -1.7,1.5 -1.7,2.2 0,2.3 3.7,2.3 5.2,2.3 h 1 c 4.4,0 7.2,-0.2 8.7,-0.5 2.3,-0.6 2.8,-1.8 2.8,-2.7 -0.1,-0.5 -0.3,-1 -3.2,-3.3 z m -16.8,-15.7 c -0.2,0 -0.6,0.1 -1.3,0.1 l -9.8,-0.1 -0.5,-0.1 -0.1,0 c 0,0 -0.1,0 -0.1,0 0.2,-1 1.2,-4.6 6,-17.5 0.5,1.5 1.3,3.8 2.5,7.5 2.4,6.9 3.1,9.3 3.3,10.1 z"
   id="path40"
   inkscape:connector-curvature="0"
   style="fill:#231f20" />
		<path
   d="m 364.6,458.9 -1,-1 c -0.5,-0.7 -0.8,-2 -1.1,-3.6 -0.3,-1.8 -0.4,-6.9 -0.4,-15.2 l -0.1,-9.2 c 0,-4 0.2,-6.8 0.5,-8.2 0.3,-1.3 0.7,-2.2 1.3,-2.9 l 1.2,-0.9 1.3,-1.5 V 416 c 0,-1.3 -0.6,-2.2 -1.8,-2.6 -1.3,-0.4 -3.1,-0.7 -5.4,-0.7 -2.4,0 -3.9,0.2 -4.7,0.6 -0.9,0.4 -1.9,1.5 -3.1,3.4 -1.1,1.8 -3.7,7.5 -7.8,17.4 -3.4,8.3 -5.1,11.8 -5.8,13.3 l -3.3,-8.2 c -0.3,-0.8 -0.9,-2.2 -1.6,-4.2 l -0.8,-2.1 c -3.5,-8.8 -5.7,-13.8 -6.7,-15.4 -1,-1.7 -2.1,-2.8 -3.3,-3.5 -1.2,-0.7 -3.4,-1 -7,-1 -1.8,0 -6,0 -6,2.5 0,0.6 0.3,1 2.1,2.4 1,0.8 1.6,1.6 1.9,2.7 0.2,0.8 0.5,2.8 0.5,8 l -0.1,9 c 0,1.5 0,3 0,4.5 l 0,2.3 c 0,7.2 -0.3,9.9 -0.5,10.9 -0.3,1.3 -1.2,2.5 -2.7,3.7 -1.3,1 -1.9,1.9 -1.9,2.8 0,1.7 2.3,2.3 9.2,2.3 2.6,0 5.3,-0.2 5.3,-2 0,-0.9 -0.4,-1.8 -1.2,-2.9 -0.6,-0.8 -1.1,-1.6 -1.4,-2.5 -0.3,-0.9 -0.5,-2.6 -0.5,-5 0,-2.5 0,-4.5 0,-6 l 0,-6.7 c 0,-6.9 0.1,-10.6 0.3,-12.5 0.8,1.6 2.1,4.7 4.4,10.4 3.3,8.4 5.6,14.3 7,17.7 l 1.7,4.1 c 0.6,1.2 1.7,2.9 3.2,2.9 1.5,0 2.9,-1.4 4.4,-4.5 0.4,-0.8 2.7,-6.6 6.9,-17.1 3.3,-8.3 5,-12.2 5.8,-14 0.1,1 0.2,2.7 0.2,5.5 l -0.1,8.9 c 0,8.2 -0.1,13.2 -0.4,14.8 -0.2,1.5 -0.7,2.7 -1.3,3.5 -0.9,1.2 -1.3,2.1 -1.3,2.9 0,2.3 3.4,2.6 6.6,2.6 h 2.1 c 4,0 8,-0.3 8,-2.8 V 461 l -1.3,-1.2 -1.3,-0.9 z"
   id="path42"
   inkscape:connector-curvature="0"
   style="fill:#231f20" />
		<path
   d="m 430.6,415.5 c -2.9,-2.2 -7.4,-3.3 -13.5,-3.3 l -5.6,0.1 c -12.7,0 -13.6,1 -13.6,2.3 0,0.5 0,0.5 3.1,3 0.6,0.5 1.1,1.3 1.3,2.4 0.2,0.8 0.4,3.4 0.4,10.9 l -0.2,12.1 c 0,9 -0.3,12 -0.6,12.9 -0.4,1.2 -1,2.1 -1.9,2.7 -2.9,1.8 -3.2,2.3 -3.2,3 0,2.7 4.5,2.7 6.2,2.7 h 5.6 c 6.3,0 8.7,-0.7 8.7,-2.5 0,-0.9 -0.8,-1.6 -2.6,-2.5 -1.2,-0.6 -2.1,-1.2 -2.5,-1.9 -0.4,-0.6 -0.6,-1.7 -0.6,-3.1 0,-8.8 1,-10.3 1.3,-10.6 0.1,-0.1 0.8,-0.3 4.4,-0.6 2.9,-0.2 5.2,-0.5 6.7,-0.9 4.7,-1.2 8.2,-3.7 10.5,-7.7 1.2,-2.1 1.8,-4.5 1.8,-7.1 0,-5.1 -1.9,-9.1 -5.7,-11.9 z m -19,10.4 0,-1.1 0,-2.1 0,-1 c 0,-0.1 0,-0.4 0.1,-1 l 0,-0.1 c 0,-1.7 0.4,-2.1 0.6,-2.2 0.2,-0.2 1,-0.5 3.5,-0.5 l 2.5,0.1 c 2.4,0 4.3,0.8 5.8,2.4 1.5,1.6 2.3,4.1 2.3,7.4 0,3.3 -0.9,5.7 -2.8,7.4 -1.9,1.7 -4.6,2.6 -7.9,2.6 h -1.1 c -2.3,0 -2.9,-0.3 -2.9,-0.3 0,0 0,0 0,0 0,-0.1 -0.3,-0.6 -0.3,-3.1 l 0.1,-6 0,-0.3 0.1,-2.2 z"
   id="path44"
   inkscape:connector-curvature="0"
   style="fill:#231f20" />
		<path
   d="m 482.9,417.3 c 1.4,-0.6 2.9,-1.6 2.9,-2.9 0,-0.8 -0.5,-2.2 -3.5,-2.2 h -14.1 c -2.9,0 -3.3,1.4 -3.3,2.2 0,0.7 0.3,1.2 3.8,3.2 0.8,0.5 1.3,1.3 1.6,2.5 0.2,1 0.5,4.9 0.5,18.2 0,13.3 -0.3,17.3 -0.5,18.3 -0.3,1.3 -1.1,2.2 -2.4,2.8 -1.4,0.6 -2.9,1.6 -2.9,2.9 0,1 0.6,2.2 3.5,2.2 h 14.1 c 2.9,0 3.2,-1.6 3.2,-2.2 0,-0.8 -0.5,-1.4 -3.8,-3.2 -0.8,-0.4 -1.3,-1.3 -1.6,-2.5 -0.2,-1 -0.5,-5 -0.5,-18 0,-13 0.3,-17.1 0.6,-18.2 0.4,-1.5 1.1,-2.4 2.4,-3.1 z"
   id="path46"
   inkscape:connector-curvature="0"
   style="fill:#231f20" />
		<path
   d="m 550,413.2 c -2.9,-1.3 -5.9,-2 -8.9,-2 h -1.6 c -3.1,0 -6.1,0.7 -8.9,2 -2.7,1.3 -5.2,3.2 -7.3,5.5 -2.1,2.3 -3.8,5.1 -5.1,8.4 -1.3,3.3 -2,6.7 -2,10.3 v 1.7 c 0,3.2 0.6,6.6 1.7,9.8 1.1,3.3 2.7,6.1 4.7,8.5 6.2,7.3 13.7,8 16.6,8 0.3,0 0.5,0 0.8,-0.1 6.8,0 12.6,-2.6 17,-7.5 2.3,-2.5 4.1,-5.5 5.3,-8.9 1.2,-3.4 1.9,-7 1.9,-10.7 v -0.9 c 0,-7.1 -2.3,-13.4 -6.7,-18.5 -2,-2.4 -4.6,-4.3 -7.5,-5.6 z m 4.1,24.6 v 2.2 c 0,2.6 -0.4,5.3 -1.2,8.2 -1.4,4.9 -3.8,8.3 -7.3,10.2 -1.6,0.9 -3.3,1.4 -5,1.4 H 540 c -2,0 -3.9,-0.6 -5.7,-1.6 -1.8,-1.1 -3.4,-2.7 -4.6,-4.7 -2.6,-4.1 -3.9,-9 -3.9,-14.6 v -1.4 c 0,-5.8 1.4,-10.7 4,-14.8 1.3,-1.9 2.8,-3.4 4.6,-4.3 1.8,-0.9 3.5,-1.4 5.1,-1.4 h 0.6 c 1.7,0 3.4,0.4 5,1.3 3.7,2 6.4,5.9 8,11.6 0.6,2.3 1,5.1 1,7.9 z"
   id="path48"
   inkscape:connector-curvature="0"
   style="fill:#231f20" />
		<path
   d="m 642.3,414 c -1.4,-0.8 -4.3,-1.1 -9.1,-1.1 -1.5,0 -5,0 -5,2.2 0,0.7 0.5,1 1.9,2 l 0.9,0.6 c 0.4,0.4 0.7,0.9 0.9,1.6 0.4,1.2 0.8,5.2 0.8,16.8 0,7 -0.1,10.5 -0.2,12.2 -1.3,-1.6 -4.1,-5.3 -10,-13.7 -7.2,-10.1 -11.4,-16 -12.7,-17.5 -2.5,-2.9 -5.4,-4.3 -8.7,-4.3 h -1.7 c -2.8,0 -5.6,0.3 -5.6,2.3 0,1 0.8,1.9 2.6,3.2 1.2,0.8 2,1.8 2.2,3 0.2,1 0.4,4.8 0.4,17.4 0,12.6 -0.3,16.5 -0.5,17.5 -0.3,1.3 -0.9,2.2 -1.7,2.8 -3.4,2.4 -3.4,2.5 -3.4,3.1 0,2 2.9,2.3 5.7,2.3 8.9,0 10.7,-0.9 10.7,-2.5 0,-0.7 -0.5,-1.5 -1.7,-2.8 -1.1,-1.1 -1.5,-1.7 -1.7,-2.1 -0.6,-1.3 -0.9,-3.1 -0.9,-5.6 l -0.2,-14 c 0,-6.8 0.2,-10.1 0.3,-11.7 1.3,1.5 4,5.3 10.2,14.1 7.3,10.4 11.4,16.2 12.6,17.8 3.3,4.3 5.8,6.2 7.8,6.2 2.6,0 2.6,-4.3 2.6,-6 l -0.1,-6.9 c 0,-2.3 0,-4.1 0,-5.2 l 0.1,-10.6 c 0,-6.7 0.2,-10.9 0.5,-12.5 0.3,-1.5 0.9,-2.7 2,-3.7 1.4,-1.4 2.1,-2.6 2.1,-3.6 v -0.4 l -0.9,-0.9 -0.2,0 z"
   id="path50"
   inkscape:connector-curvature="0"
   style="fill:#231f20" />
		<path
   d="m 702.8,439.1 c -1.6,-1.4 -4.5,-3 -9,-5 -4.3,-1.9 -6.8,-3.1 -7.5,-3.5 -1.8,-1.1 -3.1,-2.4 -3.8,-3.8 -0.5,-1 -0.7,-1.9 -0.7,-2.8 0,-1.1 0.4,-2.3 1,-3.4 1.3,-2.1 3.8,-3.1 7.6,-3.1 3.8,0 6.8,1.9 9.1,5.7 1.9,3.2 2.4,3.5 3,3.5 0.9,0 2.5,-0.5 2.5,-3.6 0,-3.4 -0.2,-5.7 -0.7,-7.1 -0.4,-1.2 -1.4,-2.6 -4,-2.6 -1.6,0 -3.3,-0.2 -5.2,-0.6 -2.1,-0.4 -3.7,-0.7 -5,-0.7 -4.7,0 -8.6,1.3 -11.6,3.9 -3.1,2.6 -4.7,6.2 -4.7,10.7 0,3.3 1,6.1 3.1,8.2 2,2.1 5.4,4.2 10.1,6.3 4.6,2.1 7.5,3.5 8.6,4.3 2.4,1.7 3.5,3.7 3.5,6.1 0,2.4 -0.8,4.3 -2.5,5.6 -1.7,1.4 -3.9,2.1 -6.5,2.1 -2.6,0 -5.1,-0.8 -7.4,-2.4 -1.3,-0.9 -2.6,-2.5 -3.9,-4.6 -2,-3.3 -2.7,-3.9 -3.5,-3.9 -1.6,0 -2.4,1.5 -2.4,4.3 v 1.2 c 0,3 0.4,5.4 1.1,7.1 0.8,1.9 2.1,2.3 3.1,2.3 0,0 0,0 0,0 l 2.9,-0.1 c 0.2,0 0.9,0.1 4,0.8 2.4,0.6 4.3,0.9 5.7,0.9 h 1.3 c 4.5,0 8.3,-1.3 11.3,-3.9 1.4,-1.2 2.7,-2.8 3.7,-4.6 1,-1.9 1.5,-4 1.5,-6.3 v -1.4 c 0.2,-3.4 -1.5,-6.8 -4.7,-9.6 z"
   id="path52"
   inkscape:connector-curvature="0"
   style="fill:#231f20" />
	</g>
</g>
</svg>