<svg xmlns="http://www.w3.org/2000/svg" xmlns:xlink="http://www.w3.org/1999/xlink" version="1.1" x="0px" y="0px" viewBox="0 0 100 100" style="enable-background:new 0 0 100 100;" xml:space="preserve"><path d="M95.17,43.975c-0.875-12.889-8.367-21.621-12.008-25.145c0,0-12.174-12.896-26.482-13.46  C39.535,4.695,31.829,21.906,29.947,24.913c-1.883,3.006-6.401,13.717-6.213,15.784L6.414,59.864c0,0-1.883,2.067-0.941,5.262  c0.941,3.194,4.142,13.089,11.484,20.355c7.281,7.33,15.147,8.666,18.347,9.606c3.201,0.939,5.271-0.94,5.271-0.94L59.778,76.86  c2.072,0.188,12.802-4.322,15.813-6.201C78.604,68.779,96.121,57.984,95.17,43.975z M45.112,70.273c-1.324,1.32-3.469,1.32-4.792,0  c-0.575-0.575-0.885-1.306-0.96-2.056l-4.682-0.882l0.791,4.284c0.909-0.034,1.828,0.286,2.522,0.979  c1.324,1.32,1.324,3.462,0,4.783c-1.323,1.321-3.469,1.321-4.792,0c-0.63-0.629-0.951-1.444-0.981-2.269l-4.585-0.862l0.824,4.468  c0.872-0.003,1.745,0.326,2.411,0.989c1.323,1.321,1.323,3.463,0,4.784c-1.324,1.32-3.469,1.32-4.792,0  c-1.323-1.321-1.323-3.463,0-4.784c0.221-0.221,0.471-0.39,0.73-0.538l-0.97-5.257l-5.921-1.115  c-0.105,0.146-0.212,0.288-0.343,0.419c-1.324,1.32-3.469,1.32-4.792,0c-1.323-1.321-1.323-3.462,0-4.784  c1.324-1.32,3.469-1.32,4.792,0c0.753,0.751,1.062,1.768,0.958,2.748l4.974,0.936l-0.931-5.045  c-0.957,0.078-1.939-0.233-2.671-0.964c-1.324-1.321-1.324-3.463,0-4.783c1.323-1.321,3.469-1.321,4.792,0  c0.806,0.803,1.114,1.911,0.939,2.953l4.916,0.925l-0.965-5.229c-0.922,0.044-1.856-0.273-2.56-0.976  c-1.323-1.321-1.323-3.462,0-4.783c1.324-1.32,3.469-1.32,4.792,0c1.323,1.321,1.323,3.462,0,4.783  c-0.182,0.183-0.382,0.333-0.592,0.465l1.122,6.078l5.269,0.991c0.165-0.377,0.395-0.734,0.705-1.043c1.324-1.32,3.469-1.32,4.792,0  C46.435,66.811,46.435,68.952,45.112,70.273z M85.672,47.328c-2.259,4.376-7.907,2.013-7.907,2.013  c-20.333-7.517-24.286-22.549-24.286-22.549c0.188,1.127,2.45,25.556,2.45,25.556c6.969-6.953,9.787-4.886,10.917-4.698  c1.129,0.188,8.095,4.51,6.024,9.959c-2.071,5.449-4.895,6.013-6.589,7.14c-1.695,1.127-10.731,4.321-15.061,2.63  c-4.33-1.691-12.614-9.771-12.614-9.771c-6.506-7.881-6.589-10.899-6.024-13.905c0.564-3.007,4.518-11.838,10.919-20.482  s9.79-9.396,22.027-6.013C77.765,20.591,87.931,42.952,85.672,47.328z"></path></svg>